<?xml version="1.0" encoding="UTF-8" standalone="no"?>
<svg
   xmlns:dc="http://purl.org/dc/elements/1.1/"
   xmlns:cc="http://creativecommons.org/ns#"
   xmlns:rdf="http://www.w3.org/1999/02/22-rdf-syntax-ns#"
   xmlns:svg="http://www.w3.org/2000/svg"
   xmlns="http://www.w3.org/2000/svg"
   xmlns:sodipodi="http://sodipodi.sourceforge.net/DTD/sodipodi-0.dtd"
   xmlns:inkscape="http://www.inkscape.org/namespaces/inkscape"
   width="1792"
   height="1792"
   viewBox="0 0 1792 1792"
   id="svg2"
   version="1.1"
   inkscape:version="0.48.4 r9939"
   sodipodi:docname="database_pdb.svg">
  <metadata
     id="metadata10">
    <rdf:RDF>
      <cc:Work
         rdf:about="">
        <dc:format>image/svg+xml</dc:format>
        <dc:type
           rdf:resource="http://purl.org/dc/dcmitype/StillImage" />
        <dc:title></dc:title>
      </cc:Work>
    </rdf:RDF>
  </metadata>
  <defs
     id="defs8" />
  <sodipodi:namedview
     pagecolor="#ffffff"
     bordercolor="#666666"
     borderopacity="1"
     objecttolerance="10"
     gridtolerance="10"
     guidetolerance="10"
     inkscape:pageopacity="0"
     inkscape:pageshadow="2"
     inkscape:window-width="1600"
     inkscape:window-height="876"
     id="namedview6"
     showgrid="false"
     inkscape:zoom="0.37249375"
     inkscape:cx="675.75321"
     inkscape:cy="739.45805"
     inkscape:window-x="0"
     inkscape:window-y="24"
     inkscape:window-maximized="1"
     inkscape:current-layer="svg2" />
  <path
     d="M896 768q237 0 443-43t325-127v170q0 69-103 128t-280 93.5-385 34.5-385-34.5-280-93.5-103-128v-170q119 84 325 127t443 43zm0 768q237 0 443-43t325-127v170q0 69-103 128t-280 93.5-385 34.5-385-34.5-280-93.5-103-128v-170q119 84 325 127t443 43zm0-384q237 0 443-43t325-127v170q0 69-103 128t-280 93.5-385 34.5-385-34.5-280-93.5-103-128v-170q119 84 325 127t443 43zm0-1152q208 0 385 34.5t280 93.5 103 128v128q0 69-103 128t-280 93.5-385 34.5-385-34.5-280-93.5-103-128v-128q0-69 103-128t280-93.5 385-34.5z"
     id="path4" />
  <g
     transform="matrix(0,-4.7123229,4.7123229,0,-113.98655,-4183.3378)"
     style="font-size:144px;font-style:normal;font-variant:normal;font-stretch:normal;text-align:start;line-height:125%;letter-spacing:0px;word-spacing:0px;writing-mode:lr-tb;text-anchor:start;fill:#000000;fill-opacity:1;stroke:#ffffff;stroke-width:8.48838234;stroke-miterlimit:4;stroke-opacity:1;font-family:URW Gothic L;-inkscape-font-specification:URW Gothic L Book"
     id="flowRoot2987">
    <path
       d="m -1223.1306,86.866922 35.1472,0 c 9.5052,1.35e-4 16.7999,0.746183 21.8841,2.238148 5.1394,1.492229 8.9801,3.64748 11.5223,6.46576 2.5973,2.818532 4.3381,6.24483 5.2224,10.2789 0.9393,3.97904 1.4091,10.16848 1.4092,18.56834 l 0,11.6881 c -10e-5,8.56583 -0.8843,14.81053 -2.6527,18.73413 -1.7684,3.92373 -5.029,6.93555 -9.7815,9.03549 -4.6974,2.10004 -10.8592,3.15004 -18.4854,3.14998 l -9.3671,0 0,54.04713 -34.8985,0 0,-134.205978 m 34.8985,22.961738 0,34.15248 c 0.9947,0.0553 1.8513,0.083 2.5697,0.0829 3.2052,8e-5 5.4157,-0.7736 6.6316,-2.32104 1.271,-1.60254 1.9065,-4.89068 1.9065,-9.86443 l 0,-11.02495 c 0,-4.58672 -0.7184,-7.57091 -2.1552,-8.95259 -1.4369,-1.38146 -4.4211,-2.07225 -8.9526,-2.07236"
       style="font-size:169.76765442px;font-weight:bold;stroke:#ffffff;font-family:Impact;-inkscape-font-specification:Impact Bold"
       id="path3793" />
    <path
       d="m -1137.9152,86.866922 26.1117,0 c 16.8551,1.35e-4 28.2393,0.773815 34.1525,2.321043 5.9683,1.547491 10.4999,4.089583 13.5947,7.626281 3.0946,3.536944 5.0288,7.488244 5.8026,11.853894 0.7736,4.31061 1.1604,12.82109 1.1605,25.53146 l 0,47.00111 c -10e-5,12.04734 -0.5804,20.11572 -1.7408,24.20515 -1.1053,4.0342 -3.0672,7.21182 -5.8855,9.53285 -2.8185,2.26579 -6.3,3.86841 -10.4447,4.80788 -4.1448,0.8842 -10.3895,1.32631 -18.7341,1.32631 l -44.0169,0 0,-134.205978 m 34.8985,22.961738 0,88.2825 c 5.0289,2e-5 8.1236,-0.99471 9.2842,-2.9842 1.1604,-2.0447 1.7407,-7.54335 1.7408,-16.49598 l 0,-52.14055 c -10e-5,-6.07882 -0.1935,-9.97485 -0.5803,-11.68811 -0.3869,-1.71304 -1.2711,-2.95645 -2.6526,-3.73024 -1.3816,-0.82884 -3.979,-1.24331 -7.7921,-1.24342"
       style="font-size:169.76765442px;font-weight:bold;stroke:#ffffff;font-family:Impact;-inkscape-font-specification:Impact Bold"
       id="path3795" />
    <path
       d="m -1044.0788,86.866922 34.8156,0 c 10.99729,1.35e-4 19.31435,0.856709 24.95123,2.569726 5.69201,1.71328 10.27882,5.194839 13.76046,10.444689 3.48148,5.194833 5.22226,13.594783 5.22235,25.199883 -9e-5,7.84742 -1.2435,13.31845 -3.73025,16.41309 -2.43164,3.0948 -7.26714,5.4711 -14.50651,7.12891 8.06831,1.82375 13.53933,4.86321 16.41308,9.11838 2.87359,4.20004 4.31042,10.6658 4.31051,19.39728 l 0,12.43416 c -9e-5,9.06314 -1.05008,15.77757 -3.14999,20.14333 -2.04481,4.36577 -5.33295,7.34997 -9.86442,8.95259 -4.53163,1.60262 -13.81579,2.40394 -27.85256,2.40394 l -40.3695,0 0,-134.205978 m 34.8985,22.961738 0,29.84197 c 1.4921,-0.0552 2.6526,-0.0828 3.4816,-0.0829 3.4262,8e-5 5.6091,-0.82886 6.54864,-2.48683 0.93942,-1.71307 1.40915,-6.54857 1.4092,-14.50652 -5e-5,-4.19988 -0.38689,-7.12881 -1.16052,-8.7868 -0.77373,-1.71304 -1.79612,-2.79067 -3.06712,-3.23288 -1.2158,-0.44199 -3.6197,-0.69068 -7.2118,-0.74605 m 0,50.73135 0,37.55115 c 4.9184,-0.16577 8.0407,-0.93945 9.36708,-2.32105 1.38152,-1.38154 2.07231,-4.78021 2.07236,-10.196 l 0,-12.51705 c -5e-5,-5.74729 -0.60794,-9.22885 -1.82367,-10.44469 -1.21587,-1.21572 -4.42107,-1.90651 -9.61577,-2.07236"
       style="font-size:169.76765441999998529px;font-weight:bold;stroke:#ffffff;font-family:Impact;-inkscape-font-specification:Impact Bold;stroke-linejoin:miter"
       id="path3797" />
  </g>
</svg>
