<?xml version="1.0" encoding="UTF-8" standalone="no"?>
<svg
   xmlns:dc="http://purl.org/dc/elements/1.1/"
   xmlns:cc="http://creativecommons.org/ns#"
   xmlns:rdf="http://www.w3.org/1999/02/22-rdf-syntax-ns#"
   xmlns:svg="http://www.w3.org/2000/svg"
   xmlns="http://www.w3.org/2000/svg"
   xmlns:sodipodi="http://sodipodi.sourceforge.net/DTD/sodipodi-0.dtd"
   xmlns:inkscape="http://www.inkscape.org/namespaces/inkscape"
   width="2048"
   height="1793"
   viewBox="0 0 2048 1793"
   id="svg2"
   version="1.1"
   inkscape:version="0.48.4 r9939"
   sodipodi:docname="map-o.svg">
  <metadata
     id="metadata10">
    <rdf:RDF>
      <cc:Work
         rdf:about="">
        <dc:format>image/svg+xml</dc:format>
        <dc:type
           rdf:resource="http://purl.org/dc/dcmitype/StillImage" />
      </cc:Work>
    </rdf:RDF>
  </metadata>
  <defs
     id="defs8" />
  <sodipodi:namedview
     pagecolor="#ffffff"
     bordercolor="#666666"
     borderopacity="1"
     objecttolerance="10"
     gridtolerance="10"
     guidetolerance="10"
     inkscape:pageopacity="0"
     inkscape:pageshadow="2"
     inkscape:window-width="640"
     inkscape:window-height="480"
     id="namedview6"
     showgrid="false"
     fit-margin-top="0"
     fit-margin-left="0"
     fit-margin-right="0"
     fit-margin-bottom="0"
     inkscape:zoom="0.13169643"
     inkscape:cx="1024"
     inkscape:cy="896.5"
     inkscape:window-x="198"
     inkscape:window-y="89"
     inkscape:window-maximized="0"
     inkscape:current-layer="svg2" />
  <path
     d="m 2020,11.5 q 28,20 28,53 v 1408 q 0,20 -11,36 -11,16 -29,23 l -640,256 q -24,11 -48,0 l -616,-246 -616,246 q -10,5 -24,5 -19,0 -36,-11 -28,-20 -28,-53 v -1408 q 0,-20 11,-36 11,-16 29,-23 L 680,5.5 q 24,-11 48,0 l 616,246 616,-246 q 32,-13 60,6 z m -1284,135 v 1270 l 576,230 v -1270 z m -608,217 v 1270 l 544,-217 v -1270 z m 1792,1066 v -1270 l -544,217 v 1270 z"
     id="path4"
     inkscape:connector-curvature="0" />
</svg>
