<?xml version="1.0" encoding="UTF-8" standalone="no"?>
<svg
   xmlns:dc="http://purl.org/dc/elements/1.1/"
   xmlns:cc="http://creativecommons.org/ns#"
   xmlns:rdf="http://www.w3.org/1999/02/22-rdf-syntax-ns#"
   xmlns:svg="http://www.w3.org/2000/svg"
   xmlns="http://www.w3.org/2000/svg"
   xmlns:sodipodi="http://sodipodi.sourceforge.net/DTD/sodipodi-0.dtd"
   xmlns:inkscape="http://www.inkscape.org/namespaces/inkscape"
   width="2304"
   height="1408"
   viewBox="0 0 2304 1408"
   id="svg2"
   version="1.1"
   inkscape:version="0.48.4 r9939"
   sodipodi:docname="usb.svg">
  <metadata
     id="metadata10">
    <rdf:RDF>
      <cc:Work
         rdf:about="">
        <dc:format>image/svg+xml</dc:format>
        <dc:type
           rdf:resource="http://purl.org/dc/dcmitype/StillImage" />
      </cc:Work>
    </rdf:RDF>
  </metadata>
  <defs
     id="defs8" />
  <sodipodi:namedview
     pagecolor="#ffffff"
     bordercolor="#666666"
     borderopacity="1"
     objecttolerance="10"
     gridtolerance="10"
     guidetolerance="10"
     inkscape:pageopacity="0"
     inkscape:pageshadow="2"
     inkscape:window-width="640"
     inkscape:window-height="480"
     id="namedview6"
     showgrid="false"
     fit-margin-top="0"
     fit-margin-left="0"
     fit-margin-right="0"
     fit-margin-bottom="0"
     inkscape:zoom="0.13169643"
     inkscape:cx="1152"
     inkscape:cy="640"
     inkscape:window-x="10"
     inkscape:window-y="34"
     inkscape:window-maximized="0"
     inkscape:current-layer="svg2" />
  <path
     d="m 2288,677 q 16,8 16,27 0,19 -16,27 l -320,192 q -8,5 -16,5 -9,0 -16,-4 -16,-10 -16,-28 V 768 h -858 q 37,58 83,165 16,37 24.5,55 8.5,18 24,49 15.5,31 27,47 11.5,16 27,34 15.5,18 31.5,26 16,8 33,8 h 96 v -96 q 0,-14 9,-23 9,-9 23,-9 h 320 q 14,0 23,9 9,9 9,23 v 320 q 0,14 -9,23 -9,9 -23,9 h -320 q -14,0 -23,-9 -9,-9 -9,-23 v -96 h -96 q -32,0 -61,-10 -29,-10 -51,-23.5 -22,-13.5 -45,-40.5 -23,-27 -37,-46 -14,-19 -33.5,-57 -19.5,-38 -28.5,-57.5 -9,-19.5 -28,-60.5 -23,-53 -37,-81.5 Q 977,875 955,838.5 933,802 910.5,785 888,768 864,768 H 504 Q 482,852 413,906 344,960 256,960 150,960 75,885 0,810 0,704 0,598 75,523 q 75,-75 181,-75 88,0 157,54 69,54 91,138 h 104 q 24,0 46.5,-17 22.5,-17 44.5,-53.5 22,-36.5 36,-65 14,-28.5 37,-81.5 19,-41 28,-60.5 9,-19.5 28.5,-57.5 19.5,-38 33.5,-57 14,-19 37,-46 23,-27 45,-40.5 22,-13.5 51,-23.5 29,-10 61,-10 h 107 Q 1184,71 1233,35.5 1282,0 1344,0 q 80,0 136,56 56,56 56,136 0,80 -56,136 -56,56 -136,56 -62,0 -111,-35.5 -49,-35.5 -70,-92.5 h -107 q -17,0 -33,8 -16,8 -31.5,26 -15.5,18 -27,34 -11.5,16 -27,47 -15.5,31 -24,49 -8.5,18 -24.5,55 -46,107 -83,165 H 1920 V 512 q 0,-18 16,-28 16,-10 32,1 z"
     id="path4"
     inkscape:connector-curvature="0" />
</svg>
