<?xml version="1.0" encoding="UTF-8" standalone="no"?>
<!-- Created with Inkscape (http://www.inkscape.org/) -->

<svg
   xmlns:dc="http://purl.org/dc/elements/1.1/"
   xmlns:cc="http://creativecommons.org/ns#"
   xmlns:rdf="http://www.w3.org/1999/02/22-rdf-syntax-ns#"
   xmlns:svg="http://www.w3.org/2000/svg"
   xmlns="http://www.w3.org/2000/svg"
   version="1.1"
   width="1964"
   height="1395"
   viewBox="0 0 1964 1395"
   id="svg2">
  <metadata
     id="metadata10">
    <rdf:RDF>
      <cc:Work
         rdf:about="">
        <dc:format>image/svg+xml</dc:format>
        <dc:type
           rdf:resource="http://purl.org/dc/dcmitype/StillImage" />
        <dc:title></dc:title>
      </cc:Work>
    </rdf:RDF>
  </metadata>
  <defs
     id="defs8" />
  <path
     d="m 982,1395 q -20,0 -93,-73.5 -73,-73.5 -73,-93.5 0,-32 62.5,-54 62.5,-22 103.5,-22 41,0 103.5,22 62.5,22 62.5,54 0,20 -73,93.5 -73,73.5 -93,73.5 z m 270,-271 q -2,0 -40,-25 -38,-25 -101.5,-50 -63.5,-25 -128.5,-25 -65,0 -128.5,25 -63.5,25 -101,50 -37.5,25 -40.5,25 -18,0 -93.5,-75 -75.5,-75 -75.5,-93 0,-13 10,-23 78,-77 196,-121 118,-44 233,-44 115,0 233,44 118,44 196,121 10,10 10,23 0,18 -75.5,93 -75.5,75 -93.5,75 z m 273,-272 q -11,0 -23,-8 Q 1366,739 1250,689.5 1134,640 982,640 q -85,0 -170.5,22 -85.5,22 -149,53 -63.5,31 -113.5,62 -50,31 -79,53 -29,22 -31,22 -17,0 -92,-75 -75,-75 -75,-93 0,-12 10,-22 132,-132 320,-205 188,-73 380,-73 192,0 380,73 188,73 320,205 10,10 10,22 0,18 -75,93 -75,75 -92,75 z m 271,-271 q -11,0 -22,-9 Q 1595,415 1402.5,335.5 1210,256 982,256 754,256 561.5,335.5 369,415 190,572 q -11,9 -22,9 -17,0 -92.5,-75 Q 0,431 0,413 0,400 10,390 197,204 455,102 713,0 982,0 q 269,0 527,102 258,102 445,288 10,10 10,23 0,18 -75.5,93 -75.5,75 -92.5,75 z"
     id="path4" />
</svg>
